REM DIRINDEX 1\2,1\3,1\4,1\5,1\6
REM DIRNAME cjc030,folder01,folder02,folder03,folder04,folder05
TITLE ""
FILE "Disc3Track42.mp3" MP3
  TRACK 01 AUDIO
    TITLE "3:cjc030_05258"
    INDEX 01 00:00:00
  TRACK 02 AUDIO
    TITLE "0:"
    INDEX 01 00:01:09
  TRACK 03 AUDIO
    TITLE "4:cjc030_05259"
    INDEX 01 00:01:17
  TRACK 04 AUDIO
    TITLE "0:"
    INDEX 01 00:01:69
  TRACK 05 AUDIO
    TITLE "5:cjc030_05260"
    INDEX 01 00:01:73
  TRACK 06 AUDIO
    TITLE "0:"
    INDEX 01 00:03:14
  TRACK 07 AUDIO
    TITLE "6:cjc030_05261"
    INDEX 01 00:03:27
  TRACK 08 AUDIO
    TITLE "0:"
    INDEX 01 00:06:61
  TRACK 09 AUDIO
    TITLE "3:cjc030_05262"
    INDEX 01 00:07:37
  TRACK 10 AUDIO
    TITLE "0:"
    INDEX 01 00:08:58
  TRACK 11 AUDIO
    TITLE "4:cjc030_05263"
    INDEX 01 00:08:68
  TRACK 12 AUDIO
    TITLE "0:"
    INDEX 01 00:09:63
  TRACK 13 AUDIO
    TITLE "5:cjc030_05264"
    INDEX 01 00:09:71
  TRACK 14 AUDIO
    TITLE "0:"
    INDEX 01 00:11:19
  TRACK 15 AUDIO
    TITLE "3:cjc030_05265"
    INDEX 01 00:11:68
  TRACK 16 AUDIO
    TITLE "0:"
    INDEX 01 00:13:10
  TRACK 17 AUDIO
    TITLE "4:cjc030_05266"
    INDEX 01 00:13:16
  TRACK 18 AUDIO
    TITLE "0:"
    INDEX 01 00:14:07
  TRACK 19 AUDIO
    TITLE "5:cjc030_05267"
    INDEX 01 00:14:17
  TRACK 20 AUDIO
    TITLE "0:"
    INDEX 01 00:15:34
  TRACK 21 AUDIO
    TITLE "6:cjc030_05268"
    INDEX 01 00:15:46
  TRACK 22 AUDIO
    TITLE "0:"
    INDEX 01 00:20:04
  TRACK 23 AUDIO
    TITLE "3:cjc030_05269"
    INDEX 01 00:20:53
  TRACK 24 AUDIO
    TITLE "0:"
    INDEX 01 00:21:68
  TRACK 25 AUDIO
    TITLE "4:cjc030_05270"
    INDEX 01 00:22:01
  TRACK 26 AUDIO
    TITLE "0:"
    INDEX 01 00:24:57
  TRACK 27 AUDIO
    TITLE "5:cjc030_05271"
    INDEX 01 00:24:67
  TRACK 28 AUDIO
    TITLE "0:"
    INDEX 01 00:26:07
  TRACK 29 AUDIO
    TITLE "6:cjc030_05272"
    INDEX 01 00:26:20
  TRACK 30 AUDIO
    TITLE "0:"
    INDEX 01 00:30:40
  TRACK 31 AUDIO
    TITLE "3:cjc030_05273"
    INDEX 01 00:31:14
  TRACK 32 AUDIO
    TITLE "0:"
    INDEX 01 00:32:29
  TRACK 33 AUDIO
    TITLE "4:cjc030_05274"
    INDEX 01 00:32:37
  TRACK 34 AUDIO
    TITLE "0:"
    INDEX 01 00:34:22
  TRACK 35 AUDIO
    TITLE "5:cjc030_05275"
    INDEX 01 00:34:28
  TRACK 36 AUDIO
    TITLE "0:"
    INDEX 01 00:35:49
  TRACK 37 AUDIO
    TITLE "6:cjc030_05276"
    INDEX 01 00:35:59
  TRACK 38 AUDIO
    TITLE "0:"
    INDEX 01 00:40:19
  TRACK 39 AUDIO
    TITLE "3:cjc030_05277"
    INDEX 01 00:40:70
  TRACK 40 AUDIO
    TITLE "0:"
    INDEX 01 00:42:10
  TRACK 41 AUDIO
    TITLE "4:cjc030_05278"
    INDEX 01 00:42:18
  TRACK 42 AUDIO
    TITLE "0:"
    INDEX 01 00:43:27
  TRACK 43 AUDIO
    TITLE "5:cjc030_05279"
    INDEX 01 00:43:37
  TRACK 44 AUDIO
    TITLE "0:"
    INDEX 01 00:44:52
  TRACK 45 AUDIO
    TITLE "3:cjc030_05280"
    INDEX 01 00:45:28
  TRACK 46 AUDIO
    TITLE "0:"
    INDEX 01 00:46:37
  TRACK 47 AUDIO
    TITLE "4:cjc030_05281"
    INDEX 01 00:46:47
  TRACK 48 AUDIO
    TITLE "0:"
    INDEX 01 00:49:67
  TRACK 49 AUDIO
    TITLE "5:cjc030_05282"
    INDEX 01 00:50:01
  TRACK 50 AUDIO
    TITLE "0:"
    INDEX 01 00:51:13
  TRACK 51 AUDIO
    TITLE "6:cjc030_05283"
    INDEX 01 00:51:24
  TRACK 52 AUDIO
    TITLE "0:"
    INDEX 01 00:54:56
  TRACK 53 AUDIO
    TITLE "3:cjc030_05284"
    INDEX 01 00:55:28
  TRACK 54 AUDIO
    TITLE "0:"
    INDEX 01 00:56:49
  TRACK 55 AUDIO
    TITLE "4:cjc030_05285"
    INDEX 01 00:56:55
  TRACK 56 AUDIO
    TITLE "0:"
    INDEX 01 00:58:15
  TRACK 57 AUDIO
    TITLE "5:cjc030_05286"
    INDEX 01 00:58:24
  TRACK 58 AUDIO
    TITLE "0:"
    INDEX 01 00:59:43
  TRACK 59 AUDIO
    TITLE "3:cjc030_05287"
    INDEX 01 01:00:23
  TRACK 60 AUDIO
    TITLE "0:"
    INDEX 01 01:01:52
  TRACK 61 AUDIO
    TITLE "4:cjc030_05288"
    INDEX 01 01:01:64
  TRACK 62 AUDIO
    TITLE "0:"
    INDEX 01 01:03:39
  TRACK 63 AUDIO
    TITLE "5:cjc030_05289"
    INDEX 01 01:03:47
  TRACK 64 AUDIO
    TITLE "0:"
    INDEX 01 01:05:05
  TRACK 65 AUDIO
    TITLE "3:cjc030_05290"
    INDEX 01 01:05:60
  TRACK 66 AUDIO
    TITLE "0:"
    INDEX 01 01:07:06
  TRACK 67 AUDIO
    TITLE "4:cjc030_05291"
    INDEX 01 01:07:17
  TRACK 68 AUDIO
    TITLE "0:"
    INDEX 01 01:10:30
  TRACK 69 AUDIO
    TITLE "5:cjc030_05292"
    INDEX 01 01:10:37
  TRACK 70 AUDIO
    TITLE "0:"
    INDEX 01 01:11:62
  TRACK 71 AUDIO
    TITLE "6:cjc030_05293"
    INDEX 01 01:11:72
  TRACK 72 AUDIO
    TITLE "0:"
    INDEX 01 01:15:31
  TRACK 73 AUDIO
    TITLE "3:cjc030_05294"
    INDEX 01 01:16:07
  TRACK 74 AUDIO
    TITLE "0:"
    INDEX 01 01:17:30
  TRACK 75 AUDIO
    TITLE "4:cjc030_05295"
    INDEX 01 01:17:41
  TRACK 76 AUDIO
    TITLE "0:"
    INDEX 01 01:18:35
  TRACK 77 AUDIO
    TITLE "5:cjc030_05296"
    INDEX 01 01:18:43
  TRACK 78 AUDIO
    TITLE "0:"
    INDEX 01 01:19:70
  TRACK 79 AUDIO
    TITLE "3:cjc030_05297"
    INDEX 01 01:20:46
  TRACK 80 AUDIO
    TITLE "0:"
    INDEX 01 01:21:51
  TRACK 81 AUDIO
    TITLE "4:cjc030_05298"
    INDEX 01 01:21:59
  TRACK 82 AUDIO
    TITLE "0:"
    INDEX 01 01:22:72
  TRACK 83 AUDIO
    TITLE "5:cjc030_05299"
    INDEX 01 01:23:07
  TRACK 84 AUDIO
    TITLE "0:"
    INDEX 01 01:24:10
  TRACK 85 AUDIO
    TITLE "6:cjc030_05300"
    INDEX 01 01:24:24
  TRACK 86 AUDIO
    TITLE "0:"
    INDEX 01 01:27:14
  TRACK 87 AUDIO
    TITLE "3:cjc030_05301"
    INDEX 01 01:27:63
  TRACK 88 AUDIO
    TITLE "0:"
    INDEX 01 01:29:07
  TRACK 89 AUDIO
    TITLE "4:cjc030_05302"
    INDEX 01 01:29:17
  TRACK 90 AUDIO
    TITLE "0:"
    INDEX 01 01:29:68
  TRACK 91 AUDIO
    TITLE "5:cjc030_05303"
    INDEX 01 01:30:01
  TRACK 92 AUDIO
    TITLE "0:"
    INDEX 01 01:31:22
  TRACK 93 AUDIO
    TITLE "6:cjc030_05304"
    INDEX 01 01:31:34
  TRACK 94 AUDIO
    TITLE "0:"
    INDEX 01 01:33:07
  TRACK 95 AUDIO
    TITLE "3:cjc030_05305"
    INDEX 01 01:33:58
  TRACK 96 AUDIO
    TITLE "0:"
    INDEX 01 01:35:00
  TRACK 97 AUDIO
    TITLE "4:cjc030_05306"
    INDEX 01 01:35:10
  TRACK 98 AUDIO
    TITLE "0:"
    INDEX 01 01:36:70
  TRACK 99 AUDIO
    TITLE "5:cjc030_05307"
    INDEX 01 01:37:05
  TRACK 100 AUDIO
    TITLE "0:"
    INDEX 01 01:38:22
